<?xml version="1.0" encoding="utf-8"?>
<!-- Generator: Adobe Illustrator 26.5.0, SVG Export Plug-In . SVG Version: 6.00 Build 0)  -->
<svg version="1.1" id="Layer_2_00000106122009088676245590000003419460574499714451_"
	 xmlns="http://www.w3.org/2000/svg" xmlns:xlink="http://www.w3.org/1999/xlink" x="0px" y="0px" viewBox="0 0 248.7 223.5"
	 style="enable-background:new 0 0 248.7 223.5;" xml:space="preserve">
<style type="text/css">
	.st0{fill:#C4709D;}
	.st1{fill:#ECC6D0;}
	.st2{fill:#0B9EB4;}
	.st3{fill:#CBE8F5;}
	.st4{fill:#D6DF24;}
	.st5{fill:#FBB040;}
	.st6{fill:#D5DE32;}
</style>
<path class="st0" d="M196.5,57c-38.9-2-38.9,31.6-38.9,31.6s-1.2,17.1,21.9,35.4c25.3,20,48.7,0.9,48.7,0.9l15.6,2.2
	C243.8,127.2,261.5,60.4,196.5,57z M233.6,112.6c-5.9,14.2-26.2,13.6-26.2,13.6s-33.9,4.5-39.3-35.7c0,0,21.2-5.6,31.4-18.7
	c0,0,21.5,12.6,31.4,15C231,86.8,239.5,98.4,233.6,112.6L233.6,112.6z"/>
<path class="st1" d="M207.5,126.2c0,0,20.3,0.6,26.2-13.6S231,86.8,231,86.8c-9.9-2.4-31.4-15-31.4-15c-7.4,9.4-20.6,15-27.3,17.3
	c1.1,9.9,6.4,33.6,31.1,37.1l0,0C205.9,126.4,207.5,126.2,207.5,126.2L207.5,126.2z"/>
<path class="st0" d="M207.3,86.4h10.1c0,0,0.1-5.1-5.8-5.1C207,81.3,207.2,86.4,207.3,86.4L207.3,86.4z"/>
<path class="st0" d="M189.4,86.3h10.1c0,0,0.1-5.1-5.8-5.1C189.2,81.1,189.4,86.3,189.4,86.3z"/>
<path class="st0" d="M184.4,93.2h38.8c0,0,3.2,24.9-17.6,25.1C184.8,118.6,184.4,93.2,184.4,93.2L184.4,93.2z"/>
<path class="st2" d="M180.3,108.5c0,0-5.9-21.9-37.5-24.5l7.1-10.3l-4.7,1.8l-0.2-13l-10.7,15.8l-1-9.7c0,0-0.9,13.2-14.1,15.8
	C107.1,86.8,99,95.5,99,106.5s4.1,48.2,48.1,45.8C191.9,149.9,180.3,108.5,180.3,108.5L180.3,108.5z M153.3,144.4
	c-29.5,4.6-41.8-15-41.8-15s-20.7-37.3,15-41.4c0,0,30-1.8,41.2,12C178.9,113.8,181.7,140,153.3,144.4L153.3,144.4z"/>
<path class="st3" d="M108.3,97.4c-0.8,10.7,0.1,36.6,26.2,46.6c5.3,1.1,11.5,1.5,18.8,0.4c28.3-4.4,25.5-30.6,14.4-44.4
	s-41.2-12-41.2-12c-2.1,0.2-4,0.6-5.7,1.1l-1.6,0.5C113.9,91.3,110.4,94.1,108.3,97.4z"/>
<path class="st2" d="M162.4,110.1h-40.4c0,0-5,27.6,21.3,27.8C167.5,138,162.4,110.1,162.4,110.1z"/>
<path class="st2" d="M127.4,103.5h11.4c0,0-0.4-5.5-5.7-5.5S127.4,103.5,127.4,103.5L127.4,103.5z"/>
<path class="st2" d="M146.2,103.5h11.4c0,0-0.4-5.5-5.7-5.5S146.2,103.5,146.2,103.5L146.2,103.5z"/>
<path class="st4" d="M123.9,59.2c0,0,13.3-20.7,16.4-39.3c3.1-18.7-7.7-10.5-10.9-3.8C126.1,22.7,121.3,40,123.9,59.2z"/>
<path class="st2" d="M105.5,65.7c0,0-5.7-25.8-15.2-40.8c-9.5-15-11.8-0.4-10.1,4.1C81.7,33.5,89.7,52.8,105.5,65.7L105.5,65.7z"/>
<path class="st0" d="M96.7,77.7c0,0-25.3-16.6-39.7-20.8s-12.6,3.4-3.6,10.4S87.8,78.1,96.7,77.7L96.7,77.7z"/>
<polygon class="st4" points="96.7,118.3 86.6,137.9 86.6,155.2 77.3,155.2 76.1,138.9 59.4,117.4 68.5,110.1 79.6,126.3 86.8,112 
	"/>
<polygon class="st2" points="53.7,163.5 41.6,167.5 41.6,182.9 27.6,160.8 11.8,165.7 17.6,209.9 29.4,209.9 27.2,184.2 45.4,207.1 
	55.8,200.8 "/>
<polygon class="st0" points="184.4,155.2 159.2,155.2 153.9,199 181.6,199 181.6,188.8 165.7,188.4 166.7,181.9 177.6,181.7 
	180.1,172.6 167.3,172.2 168.1,166.1 181.6,165.7 "/>
<polygon class="st4" points="237.9,140.2 223.4,160.8 217.4,150.5 208.1,156.4 217.4,172 217.4,189.4 227.9,189.4 227.9,173.4 
	246,148.1 "/>
<polygon class="st2" points="227,193.7 225.5,203 215.8,205.1 217.4,193.7 "/>
<polygon class="st5" points="66.7,156.2 61.5,111.4 48.7,110.1 38.9,139.1 27.6,112.6 15,112 11.8,155.2 22.9,157.6 24.3,136.7 
	33.5,157.6 46.4,157.6 53.3,136.9 54.6,159 "/>
<path class="st5" d="M199.6,191c0,0,12.8-5.6,11.8-19.8c-0.7-10.1-14.6-8.9-14.6-8.9l-15.1,3.4l-0.7,45.8l9.7-3l0.2-8.1l10.9,10.7
	l9.6-8.7L199.6,191L199.6,191z M191.2,185.8v-11.2c0,0,9.5-4.5,9.5,1C200.8,183.2,191.2,185.8,191.2,185.8L191.2,185.8z"/>
<path class="st2" d="M152.9,192.5l-12.6-6.1c0,0-6.9-2.2-4.2-5.9c2.6-3.7,13.2,0,13.2,0l5.3-10.5c-9.9-5.7-24.3-2-29.4,6.3
	c-5.1,8.3,3.2,16,9.3,19.3c6.1,3.2,17.4,6.9,11.8,11.8c-5.4,4.6-13.2-4.3-13.2-4.3l-19.3-21.5c0,0,16-8.1,14.6-18.1
	c-2.4-17.1-29.4-9.3-29.4-9.3l-2.2,40.4l7.5,0.4l1-7.3c0,0,14.6,18.5,17.8,22.3c3.2,3.9,17,16.6,31.4,3.6
	C168.9,200.6,152.9,192.5,152.9,192.5L152.9,192.5z M108.1,164.5c0,0,10.5-3,10.3,2c-0.2,5.1-10.3,10.3-10.3,10.3V164.5z"/>
<path class="st6" d="M93.7,169.2v29.2c0,0,1,7.3,3,10.7L85,215.6c0,0-3.4-6.9-3.4-10.1c0,0-4.7,7.7-11.6,6.7
	c-6.9-1-13.2-6.9-14-17.6s2.4-30,2.4-30h13.2c0,0-5.7,30,0,33.3c5.7,3.2,10.2-18.5,8.9-28.4L93.7,169.2L93.7,169.2z"/>
</svg>
