<?xml version="1.0" encoding="utf-8"?>
<!-- Generator: Adobe Illustrator 24.2.3, SVG Export Plug-In . SVG Version: 6.00 Build 0)  -->
<svg version="1.1" id="Layer_1" xmlns="http://www.w3.org/2000/svg" xmlns:xlink="http://www.w3.org/1999/xlink" x="0px" y="0px"
	 viewBox="0 0 1024 1024" style="enable-background:new 0 0 1024 1024;" xml:space="preserve">
<style type="text/css">
	.st0{clip-path:url(#SVGID_2_);fill:url(#SVGID_3_);}
	.st1{clip-path:url(#SVGID_5_);fill:url(#SVGID_6_);}
	.st2{clip-path:url(#SVGID_8_);fill:url(#SVGID_9_);}
	.st3{fill:#051630;}
	.st4{fill:#939598;}
</style>
<g>
	<defs>
		<path id="SVGID_1_" d="M388.1,301.6c14.4,23.2,22.7,50.5,22.7,79.8v77.3v2.8c0,14.6,5.9,27.9,15.5,37.5
			c11.1,11.1,27.1,17.3,44.5,15.1V381.4c0-37.2-25.5-68.5-60-77.3c-6.3-1.6-12.9-2.5-19.7-2.5H388.1z"/>
	</defs>
	<clipPath id="SVGID_2_">
		<use xlink:href="#SVGID_1_"  style="overflow:visible;"/>
	</clipPath>
	
		<linearGradient id="SVGID_3_" gradientUnits="userSpaceOnUse" x1="0" y1="1024" x2="1" y2="1024" gradientTransform="matrix(0 255.7487 255.7487 0 -261457.2656 239.1193)">
		<stop  offset="0" style="stop-color:#AA66FF"/>
		<stop  offset="1" style="stop-color:#7923FF"/>
	</linearGradient>
	<rect x="388.1" y="301.6" class="st0" width="82.7" height="214.6"/>
</g>
<g>
	<defs>
		<path id="SVGID_4_" d="M470.8,301.6c14.4,23.2,22.7,50.5,22.7,79.8v27.3v2.8c0,14.6,5.9,27.9,15.5,37.5
			c11.1,11.1,27.1,17.3,44.5,15.1v-82.6c0-37.2-25.5-68.5-60-77.3c-6.3-1.6-12.9-2.5-19.7-2.5H470.8z"/>
	</defs>
	<clipPath id="SVGID_5_">
		<use xlink:href="#SVGID_4_"  style="overflow:visible;"/>
	</clipPath>
	
		<linearGradient id="SVGID_6_" gradientUnits="userSpaceOnUse" x1="0" y1="1024" x2="1" y2="1024" gradientTransform="matrix(0 195.7219 195.7219 0 -199907.0938 253.7847)">
		<stop  offset="0" style="stop-color:#30DFFF"/>
		<stop  offset="1" style="stop-color:#2FBAFF"/>
	</linearGradient>
	<rect x="470.8" y="301.6" class="st1" width="82.7" height="164.6"/>
</g>
<g>
	<defs>
		<path id="SVGID_7_" d="M553.5,301.6c14.4,23.2,22.7,50.5,22.7,79.8v77.3v2.8c0,14.6,5.9,27.9,15.5,37.5
			c11.1,11.1,27.1,17.3,44.5,15.1V381.4c0-37.2-25.5-68.5-60-77.3c-6.3-1.6-12.9-2.5-19.7-2.5H553.5z"/>
	</defs>
	<clipPath id="SVGID_8_">
		<use xlink:href="#SVGID_7_"  style="overflow:visible;"/>
	</clipPath>
	
		<linearGradient id="SVGID_9_" gradientUnits="userSpaceOnUse" x1="0" y1="1024" x2="1" y2="1024" gradientTransform="matrix(0 255.7487 255.7487 0 -261291.9375 239.1193)">
		<stop  offset="0" style="stop-color:#FCB72D"/>
		<stop  offset="1" style="stop-color:#FFA011"/>
	</linearGradient>
	<rect x="553.4" y="301.6" class="st2" width="82.7" height="214.6"/>
</g>
<path class="st3" d="M229.3,591.5v29.7c0,4.7-1.2,9.1-3.5,13.1c-2.3,4-5.5,7.2-9.6,9.6c-4,2.3-8.4,3.5-13.1,3.5
	c-6.3,0-11.7-1.9-16.4-5.7c-4.8,3.8-10.4,5.7-16.5,5.7h-5.9c-1,5.7-3.2,10.8-6.6,15.2s-7.6,7.9-12.7,10.4
	c-5.1,2.5-10.7,3.8-16.8,3.8h-0.9c-6.9,0-13.1-1.6-18.7-4.8c-5.6-3.2-10-7.6-13.2-13.2c-3.2-5.6-4.8-11.8-4.8-18.7v-21.8h20.1v21.8
	c0,4.9,1.5,8.9,4.6,12c3.1,3.1,7.1,4.6,12.1,4.6h0.9c5,0,9-1.5,12.1-4.6c3.1-3.1,4.6-7.1,4.6-12v-39.6H165v26.9h5.2
	c2.1,0,3.8-0.6,5-1.9c1.2-1.3,1.8-2.9,1.8-4.9v-20.1H197v20.1c0,2.1,0.6,3.8,1.7,5c1.1,1.2,2.6,1.8,4.4,1.8c1.7,0,3.2-0.6,4.3-1.8
	c1.2-1.2,1.8-2.6,1.8-4.3v-29.7H229.3z"/>
<path class="st3" d="M279.1,647.4h-8.7c-0.1,5.2-1.3,9.8-3.8,14c-2.5,4.2-5.8,7.5-10,9.9c-4.2,2.4-8.9,3.6-14.1,3.6h-5.6v-20.1h5.6
	c2.3,0,4.2-0.7,5.7-2.1c1.4-1.4,2.2-3.3,2.2-5.7v-56.5h20.1v36.9h8.7V647.4z"/>
<path class="st3" d="M327.9,627.3v20.1h-10.3c-5.5,0-10.6-2.3-15.4-6.8c-4.5,4.5-10.8,6.8-18.7,6.8h-6.3l-8.7-3.2v-13.6l8.7-3.3h6.6
	c3.4,0,5.7-0.8,6.7-2.4c1-1.6,1.5-3.9,1.5-7v-12.3l-0.1-13.8h20.2v17.8c0,2,0,3.5-0.1,4.6v3.8c0,3,0.5,5.3,1.6,6.9
	c1.1,1.6,3.4,2.5,6.8,2.5H327.9z M310.1,665.7c2.3,2.3,3.4,4.9,3.4,8c0,3.1-1.1,5.8-3.4,8.1c-2.3,2.3-5,3.4-8.1,3.4
	c-3.1,0-5.8-1.1-8.1-3.4c-2.3-2.3-3.4-5-3.4-8.1c0-3,1.1-5.7,3.4-8c2.3-2.3,5-3.4,8.1-3.4C305.1,662.3,307.8,663.4,310.1,665.7"/>
<path class="st3" d="M433,627.3v20.1h-5.4c-2.6,0.1-5-0.4-7.2-1.3c-2.2-1-4.1-2.4-5.7-4.2c-3.9,3.7-9.3,5.5-16.2,5.5h-4.8
	c-2.7,0-5.1-0.5-7.4-1.6c-2.3-1.1-4.1-2.5-5.6-4.3c-3.3,3.9-8.6,5.9-16,5.9h-4.5c-2.7,0-5.3-0.5-7.6-1.5c-2.3-1-4.2-2.4-5.7-4.2
	c-1.7,2-4,3.5-6.9,4.4c-2.9,0.9-6.9,1.3-12.1,1.3h-3.9l-8.7-3.2v-13.7l8.7-3.2h2.6c2.2,0,3.9-0.6,5.1-1.8c1.2-1.2,1.8-2.9,1.8-5.1
	v-19.9h19.7v19.9c0,2.3,0.6,4,1.8,5.2c1.2,1.2,2.9,1.8,5.2,1.8h0.1c2.2,0,3.9-0.6,5.1-1.8c1.2-1.2,1.8-2.9,1.8-5.1v-19.9h19.5v19.9
	c0,2.2,0.6,3.9,1.8,5.1c1.2,1.2,2.9,1.8,5.1,1.8h0.4c2.3,0,4-0.6,5.2-1.8c1.2-1.2,1.8-2.9,1.8-5.1v-32.7h19.5v32.7
	c0,2.3,0.6,4,1.8,5.2c1.2,1.2,3,1.8,5.2,1.8H433z"/>
<path class="st3" d="M503.2,597.8c3.2,1.9,5.8,4.5,7.7,7.7c1.9,3.2,2.9,6.8,2.9,10.6v10.1c0,3.8-1,7.4-2.9,10.6
	c-1.9,3.2-4.5,5.8-7.7,7.7c-3.2,1.9-6.8,2.9-10.6,2.9h-60.4l-8.7-3.2v-13.7l8.7-3.2h57.9c1,0,1.9-0.4,2.6-1.1
	c0.7-0.7,1.1-1.6,1.1-2.6v-5.2c0-1-0.4-1.9-1.1-2.6c-0.7-0.7-1.6-1.1-2.6-1.1l-47.9,0.1l-2.1-9.1l24.4-40.1l16.2,6.5L468.9,595
	l23.7-0.1C496.4,594.9,500,595.9,503.2,597.8"/>
<rect x="529.2" y="565.7" class="st3" width="20.1" height="81.6"/>
<path class="st3" d="M695.4,627.3v20.1h-84.5c-5.2-0.1-9.9-1.3-14.1-3.8s-7.5-5.8-9.9-10s-3.6-8.9-3.6-14.1v-14.5h20.1v14.5
	c0,2.4,0.7,4.3,2.1,5.7c1.4,1.4,3.3,2.1,5.7,2.1h16.4c-0.9-3-1.3-5.9-1.3-8.7v-3.8c0-5.3,1.3-10.2,3.8-14.5
	c2.5-4.4,5.9-7.8,10.3-10.3c4.3-2.5,9.2-3.8,14.5-3.8c5.3,0,10.1,1.3,14.5,3.8c4.3,2.5,7.7,5.9,10.2,10.3c2.5,4.4,3.7,9.2,3.7,14.5
	v3.8c0,3.1-0.4,6-1.2,8.7H695.4z M646.6,575c-2.3-2.3-3.4-5-3.4-8.1c0-3,1.1-5.7,3.4-8c2.3-2.3,5-3.4,8.1-3.4c3.1,0,5.8,1.1,8.1,3.4
	c2.3,2.3,3.4,4.9,3.4,8c0,3.1-1.1,5.8-3.4,8.1c-2.3,2.3-5,3.4-8.1,3.4C651.6,578.4,648.9,577.3,646.6,575 M663.4,614.9
	c0-2.7-0.8-4.8-2.3-6.3c-1.5-1.5-3.6-2.3-6.2-2.3c-2.6,0-4.6,0.8-6.2,2.3c-1.5,1.5-2.3,3.6-2.3,6.3v3.8c0,2.3,1,4.4,2.9,6.1
	c1.9,1.7,4,2.6,6.2,2.6c2.1,0,3.9-0.8,5.5-2.5c1.6-1.7,2.3-3.7,2.3-6.2V614.9z"/>
<path class="st3" d="M796.9,627.3v20.1h-102l-8.6-3.2v-13.7l8.6-3.2h8.9v-35.7h20.1v11.3c10.4-11.3,21.1-16.9,32.1-16.9
	c11.3,0,19.7,3.4,25.2,10.1c5.6,6.7,8.3,16.5,8.3,29.4v1.8H796.9z M770.1,625.5c0-6.3-1.6-11.1-4.7-14.6c-3.1-3.5-7.2-5.2-12.2-5.2
	c-5.4,0-10.4,1.3-15.1,3.8c-4.7,2.5-9.5,6.7-14.3,12.7v5.2h46.3V625.5z"/>
<path class="st3" d="M866.8,627.3v20.1h-70.4l-8.7-3.2v-13.7l8.7-3.2h8c-0.8-2.7-1.2-5.6-1.2-8.7v-3.8c0-5.4,1.2-10.3,3.7-14.6
	c2.5-4.3,5.9-7.8,10.2-10.3c4.3-2.5,9.2-3.8,14.5-3.8c5.3,0,10.1,1.3,14.5,3.8c4.3,2.5,7.8,5.9,10.3,10.3c2.5,4.4,3.8,9.2,3.8,14.5
	v3.8c0,2.8-0.4,5.7-1.3,8.7H866.8z M806.5,576.9c-2.3-2.3-3.4-5-3.4-8.1c0-3,1.1-5.7,3.4-8c2.3-2.3,5-3.4,8.1-3.4
	c3.1,0,5.8,1.1,8.1,3.4c2.3,2.3,3.4,4.9,3.4,8c0,3.1-1.1,5.8-3.4,8.1c-2.3,2.3-5,3.4-8.1,3.4C811.4,580.3,808.7,579.1,806.5,576.9
	 M840,614.9c0-2.7-0.8-4.8-2.3-6.3c-1.5-1.5-3.6-2.3-6.2-2.3c-2.5,0-4.5,0.8-6.1,2.3c-1.6,1.5-2.3,3.6-2.3,6.3v3.8
	c0,2.3,1,4.4,2.9,6.1c2,1.7,4,2.6,6.2,2.6c2.1,0,3.9-0.9,5.5-2.6c1.5-1.7,2.3-3.8,2.3-6.1V614.9z M835.6,576.9
	c-2.3-2.3-3.4-5-3.4-8.1c0-3,1.1-5.7,3.4-8c2.3-2.3,5-3.4,8.1-3.4c3.1,0,5.8,1.1,8.1,3.4c2.3,2.3,3.4,4.9,3.4,8
	c0,3.1-1.1,5.8-3.4,8.1c-2.3,2.3-5,3.4-8.1,3.4C840.5,580.3,837.8,579.1,835.6,576.9"/>
<path class="st3" d="M919.6,589.6c4.3,2.5,7.8,5.9,10.3,10.3c2.5,4.4,3.8,9.2,3.8,14.5v3.9c0,5.2-1.3,9.9-3.8,14.3
	c-2.5,4.4-5.9,7.9-10.2,10.4c-4.3,2.6-9,3.9-14,3.9c-6.8,0-13-1.8-18.5-5.3c-4.4,3.8-9.6,5.6-15.6,5.6h-5l-8.7-3.2v-13.7l8.7-3.2h5
	c1.3,0,2.2-0.4,2.9-1.1c0.7-0.7,1-1.7,1-2.9v-8.8c0-5.3,1.3-10.2,3.8-14.5c2.5-4.4,5.9-7.8,10.3-10.3c4.3-2.5,9.2-3.8,14.5-3.8h1.2
	C910.4,585.9,915.3,587.1,919.6,589.6 M911.3,608.2c-1.5-1.5-3.6-2.3-6.2-2.3H904c-2.6,0-4.6,0.8-6.2,2.3c-1.5,1.5-2.3,3.6-2.3,6.3
	v8.3c1.3,1.3,2.8,2.3,4.5,3c1.8,0.7,3.7,1.1,5.7,1.1c2.1,0,3.9-0.8,5.5-2.5c1.6-1.7,2.3-3.7,2.3-6v-3.9
	C913.6,611.9,912.8,609.8,911.3,608.2"/>
<polygon class="st4" points="334.5,699.7 339.5,711.9 344.6,699.7 350.9,699.7 350.9,720.6 346,720.6 346,706.1 340.4,720.6 
	338.3,720.6 332.4,706.1 332.4,720.6 328.1,720.6 328.1,699.7 "/>
<path class="st4" d="M374.5,700.1l7,20.5h-5.2l-1.3-4.1h-8.1l-1.4,4.1h-4.3l7-20.5H374.5z M374.1,713.2l-3-9l-3.1,9H374.1z"/>
<path class="st4" d="M410.8,715.4c-0.7,1.5-1.8,2.7-3.1,3.6l1.3,2.1l-2.4,1.5l-1.5-2.4c-1.1,0.4-2.4,0.7-3.8,0.7
	c-2.1,0-4-0.4-5.6-1.3c-1.6-0.9-2.9-2.1-3.8-3.7c-0.9-1.6-1.4-3.4-1.4-5.5V710c0-2,0.5-3.8,1.5-5.4c0.9-1.5,2.2-2.7,3.8-3.6
	c1.6-0.9,3.4-1.3,5.4-1.3c2,0,3.8,0.4,5.4,1.3c1.6,0.8,2.9,2,3.8,3.6c0.9,1.5,1.4,3.3,1.5,5.3v0.4
	C411.9,712.2,411.5,713.9,410.8,715.4 M406.3,712.9c0.2-0.8,0.4-1.7,0.4-2.5V710c0-1-0.2-1.9-0.6-2.9c-0.4-0.9-1-1.7-1.8-2.3
	c-0.8-0.6-1.8-0.9-3.1-0.9c-1.3,0-2.4,0.3-3.2,0.9c-0.8,0.6-1.4,1.4-1.7,2.3c-0.4,0.9-0.5,1.9-0.6,2.9v0.4c0,1,0.2,2,0.5,3
	c0.4,1,1,1.8,1.8,2.5c0.8,0.7,1.9,1,3.1,1c0.5,0,1-0.1,1.5-0.3l-1.3-2.1l2.4-1.5l1.3,2.1C405.7,714.4,406.1,713.7,406.3,712.9"/>
<path class="st4" d="M436,708.7c1.2,0.4,2.1,1.1,2.7,1.9c0.6,0.9,0.9,2,0.9,3.5c0,1.2-0.3,2.3-1,3.4c-0.7,1-1.7,1.8-3,2.4
	c-1.3,0.6-2.9,0.9-4.8,0.9c-2.9,0-5.2-0.6-6.8-1.7c-1.6-1.1-2.5-2.8-2.6-4.9h5.2c0.1,0.8,0.5,1.5,1.1,2.1c0.6,0.6,1.6,0.8,3,0.8
	c1.1,0,2-0.2,2.7-0.7c0.7-0.5,1-1.1,1-1.8c0-0.6-0.1-1-0.4-1.3c-0.3-0.3-0.7-0.6-1.3-0.8c-0.6-0.2-1.4-0.4-2.5-0.5
	c-2.1-0.2-3.7-0.6-5-1.1c-1.3-0.5-2.2-1.2-2.9-2c-0.6-0.9-0.9-1.9-0.9-3.3c0-1.2,0.4-2.3,1.2-3.3c0.8-0.9,1.8-1.7,3.2-2.2
	c1.4-0.5,2.9-0.8,4.7-0.8c2.7,0,4.7,0.5,6.1,1.6c1.4,1.1,2.3,2.6,2.6,4.5h-5c-0.2-0.8-0.6-1.4-1.4-1.8c-0.7-0.5-1.6-0.7-2.6-0.7
	c-1.1,0-2,0.2-2.6,0.6c-0.7,0.4-1,1-1,1.7c0,0.7,0.4,1.2,1.1,1.6c0.7,0.4,1.9,0.7,3.5,0.9C433.2,708,434.8,708.3,436,708.7"/>
<path class="st4" d="M462.1,700.1l7,20.5h-5.2l-1.3-4.1h-8.1l-1.4,4.1h-4.3l7-20.5H462.1z M461.7,713.2l-3-9l-3.1,9H461.7z"/>
<polygon class="st4" points="493.3,699.7 493.3,703.5 484.2,703.5 484.2,708.9 491.6,708.9 491.6,712.5 484.2,712.5 484.2,720.6 
	479.3,720.6 479.3,699.7 "/>
<polygon class="st4" points="531.5,699.7 531.5,703.4 522,703.4 522,708.1 529.8,708.1 529.8,711.6 522,711.6 522,716.8 
	531.7,716.8 531.7,720.6 517.2,720.6 517.2,699.7 "/>
<polygon class="st4" points="541.9,699.7 547.5,699.7 551.8,707.2 556.1,699.7 561.1,699.7 554.9,710.2 561.8,720.6 556.2,720.6 
	551,712.6 546.2,720.6 541.1,720.6 548,709.7 "/>
<path class="st4" d="M586.2,701.6c1.2,1.1,1.8,2.7,1.8,4.8v0.4c0,2-0.7,3.4-2.1,4.4s-3.5,1.5-6.2,1.5h-2.6v8h-4.8v-20.6h8.1
	C583.1,699.9,585,700.5,586.2,701.6 M582.6,708.6c0.5-0.4,0.8-1.1,0.8-2.1v-0.4c0-0.9-0.3-1.6-0.8-2c-0.5-0.4-1.4-0.6-2.5-0.6h-3
	v5.7h3C581.2,709.3,582,709.1,582.6,708.6"/>
<path class="st4" d="M610.5,720.6l-4.2-8.4h-2.9v8.4h-4.9v-20.9h8.2c2.6,0,4.5,0.5,5.8,1.5c1.3,1,2,2.5,2,4.5v0.3
	c0,2.5-1.2,4.1-3.5,5l-0.6,0.2l5.3,9.3H610.5z M608.9,708.4c0.5-0.4,0.8-1.1,0.8-2.1V706c0-0.9-0.3-1.5-0.8-2
	c-0.5-0.4-1.4-0.6-2.5-0.6h-3.1v5.7h3.1C607.5,709.1,608.4,708.8,608.9,708.4"/>
<polygon class="st4" points="640.3,699.7 640.3,703.4 630.9,703.4 630.9,708.1 638.6,708.1 638.6,711.6 630.9,711.6 630.9,716.8 
	640.5,716.8 640.5,720.6 626,720.6 626,699.7 "/>
<path class="st4" d="M664.7,708.7c1.2,0.4,2.1,1.1,2.7,1.9c0.6,0.9,0.9,2,0.9,3.5c0,1.2-0.3,2.3-1,3.4c-0.7,1-1.7,1.8-3,2.4
	c-1.3,0.6-2.9,0.9-4.8,0.9c-2.9,0-5.2-0.6-6.8-1.7c-1.6-1.1-2.5-2.8-2.6-4.9h5.2c0.1,0.8,0.5,1.5,1.1,2.1c0.6,0.6,1.6,0.8,3,0.8
	c1.1,0,2-0.2,2.7-0.7c0.7-0.5,1-1.1,1-1.8c0-0.6-0.1-1-0.4-1.3c-0.3-0.3-0.7-0.6-1.3-0.8c-0.6-0.2-1.4-0.4-2.5-0.5
	c-2.1-0.2-3.7-0.6-5-1.1c-1.3-0.5-2.2-1.2-2.9-2c-0.6-0.9-0.9-1.9-0.9-3.3c0-1.2,0.4-2.3,1.2-3.3c0.8-0.9,1.8-1.7,3.2-2.2
	s2.9-0.8,4.7-0.8c2.7,0,4.7,0.5,6.1,1.6c1.4,1.1,2.3,2.6,2.6,4.5h-5c-0.2-0.8-0.6-1.4-1.4-1.8c-0.7-0.5-1.6-0.7-2.6-0.7
	c-1.1,0-2,0.2-2.6,0.6c-0.7,0.4-1,1-1,1.7c0,0.7,0.4,1.2,1.1,1.6c0.7,0.4,1.9,0.7,3.5,0.9C661.9,708,663.5,708.3,664.7,708.7"/>
<path class="st4" d="M692.5,708.7c1.2,0.4,2.1,1.1,2.7,1.9c0.6,0.9,0.9,2,0.9,3.5c0,1.2-0.3,2.3-1,3.4c-0.7,1-1.7,1.8-3,2.4
	c-1.3,0.6-2.9,0.9-4.8,0.9c-2.9,0-5.2-0.6-6.8-1.7c-1.6-1.1-2.5-2.8-2.6-4.9h5.2c0.1,0.8,0.5,1.5,1.1,2.1c0.6,0.6,1.6,0.8,3,0.8
	c1.1,0,2-0.2,2.7-0.7c0.7-0.5,1-1.1,1-1.8c0-0.6-0.1-1-0.4-1.3c-0.3-0.3-0.7-0.6-1.3-0.8c-0.6-0.2-1.4-0.4-2.5-0.5
	c-2.1-0.2-3.7-0.6-5-1.1c-1.3-0.5-2.2-1.2-2.9-2c-0.6-0.9-0.9-1.9-0.9-3.3c0-1.2,0.4-2.3,1.2-3.3c0.8-0.9,1.8-1.7,3.2-2.2
	s2.9-0.8,4.7-0.8c2.7,0,4.7,0.5,6.1,1.6c1.4,1.1,2.3,2.6,2.6,4.5h-5c-0.2-0.8-0.6-1.4-1.4-1.8c-0.7-0.5-1.6-0.7-2.6-0.7
	c-1.1,0-2,0.2-2.6,0.6c-0.7,0.4-1,1-1,1.7c0,0.7,0.4,1.2,1.1,1.6c0.7,0.4,1.9,0.7,3.5,0.9C689.7,708,691.3,708.3,692.5,708.7"/>
</svg>
